<svg width="20" height="21" viewBox="0 0 20 21" fill="none" xmlns="http://www.w3.org/2000/svg">
<path d="M9.99731 7.16512C8.16111 7.16512 6.66262 8.66361 6.66262 10.4998C6.66262 12.336 8.16111 13.8345 9.99731 13.8345C11.8335 13.8345 13.332 12.336 13.332 10.4998C13.332 8.66361 11.8335 7.16512 9.99731 7.16512ZM19.9989 10.4998C19.9989 9.11891 20.0114 7.75051 19.9338 6.3721C19.8563 4.77105 19.4911 3.35012 18.3203 2.17935C17.147 1.00608 15.7286 0.643338 14.1275 0.565787C12.7466 0.488236 11.3782 0.500744 9.99981 0.500744C8.61891 0.500744 7.25051 0.488236 5.8721 0.565787C4.27105 0.643338 2.85012 1.00858 1.67935 2.17935C0.506076 3.35262 0.143338 4.77105 0.0657868 6.3721C-0.0117642 7.75301 0.000744099 9.12141 0.000744099 10.4998C0.000744099 11.8782 -0.0117642 13.2491 0.0657868 14.6275C0.143338 16.2286 0.508578 17.6495 1.67935 18.8203C2.85262 19.9935 4.27105 20.3563 5.8721 20.4338C7.25301 20.5114 8.62141 20.4989 9.99981 20.4989C11.3807 20.4989 12.7491 20.5114 14.1275 20.4338C15.7286 20.3563 17.1495 19.991 18.3203 18.8203C19.4936 17.647 19.8563 16.2286 19.9338 14.6275C20.0139 13.2491 19.9989 11.8807 19.9989 10.4998ZM9.99731 15.6307C7.15795 15.6307 4.86644 13.3392 4.86644 10.4998C4.86644 7.66045 7.15795 5.36894 9.99731 5.36894C12.8367 5.36894 15.1282 7.66045 15.1282 10.4998C15.1282 13.3392 12.8367 15.6307 9.99731 15.6307ZM15.3383 6.35709C14.6754 6.35709 14.14 5.82174 14.14 5.1588C14.14 4.49587 14.6754 3.96052 15.3383 3.96052C16.0013 3.96052 16.5366 4.49587 16.5366 5.1588C16.5368 5.31622 16.5059 5.47213 16.4458 5.6176C16.3856 5.76307 16.2974 5.89525 16.1861 6.00656C16.0748 6.11787 15.9426 6.20613 15.7971 6.26628C15.6516 6.32643 15.4957 6.35729 15.3383 6.35709Z" fill="#6A6A6A"/>
</svg>
