<svg width="24" height="25" viewBox="0 0 24 25" fill="none" xmlns="http://www.w3.org/2000/svg">
<path d="M22.162 6.156C21.3986 6.49369 20.589 6.71547 19.76 6.814C20.6338 6.29143 21.2877 5.46901 21.6 4.5C20.78 4.988 19.881 5.33 18.944 5.515C18.3146 4.84158 17.4804 4.39496 16.571 4.24458C15.6616 4.09421 14.7279 4.24849 13.9153 4.68345C13.1026 5.11841 12.4564 5.80968 12.0771 6.64979C11.6978 7.4899 11.6067 8.43178 11.818 9.329C10.1551 9.24565 8.52833 8.81352 7.04329 8.06066C5.55824 7.30781 4.24813 6.25105 3.198 4.959C2.82629 5.59745 2.63096 6.32323 2.632 7.062C2.632 8.512 3.37 9.793 4.492 10.543C3.82801 10.5221 3.17863 10.3428 2.598 10.02V10.072C2.5982 11.0377 2.93237 11.9736 3.54385 12.7211C4.15533 13.4685 5.00648 13.9815 5.953 14.173C5.33662 14.34 4.69031 14.3647 4.063 14.245C4.32987 15.0762 4.85001 15.8032 5.55059 16.3241C6.25118 16.845 7.09713 17.1338 7.97 17.15C7.10248 17.8313 6.10918 18.335 5.04688 18.6322C3.98458 18.9294 2.87413 19.0143 1.779 18.882C3.6907 20.1114 5.9161 20.7641 8.189 20.762C15.882 20.762 20.089 14.389 20.089 8.862C20.089 8.682 20.084 8.5 20.076 8.322C20.8949 7.73017 21.6016 6.99702 22.163 6.157L22.162 6.156Z" fill="#6A6A6A"/>
</svg>
